<svg width="679" height="790" viewBox="0 0 679 790" fill="none" xmlns="http://www.w3.org/2000/svg">
<path d="M0 50.5948C0.000328411 8.30361 48.3744 -15.2545 81.458 11.0899L223.336 136.278C225.372 137.899 227.898 138.782 230.5 138.782H436.006C438.644 138.782 441.203 137.875 443.252 136.213L596.183 12.1368C629.191 -14.6437 679 8.84667 679 51.3526V733.552L678.99 734.649C678.157 780.585 625.166 806.006 588.816 777.908L587.954 777.23L441.356 659.605C431.417 651.629 419.054 647.282 406.311 647.282H56C25.3139 647.282 0.39278 622.6 0.00488281 592.006L0 591.282V50.5948ZM172.5 431.5C158.969 431.5 148 442.469 148 456C148 469.531 158.969 480.5 172.5 480.5H505.5C519.031 480.5 530 469.531 530 456C530 442.469 519.031 431.5 505.5 431.5H172.5ZM172.5 308.5C158.969 308.5 148 319.469 148 333C148 346.531 158.969 357.5 172.5 357.5H505.5C519.031 357.5 530 346.531 530 333C530 319.469 519.031 308.5 505.5 308.5H172.5Z" fill="white"/>
</svg>
